<!-- vim: set expandtab ts=2 sw=2 tw=80: -->
<svg xmlns="http://www.w3.org/2000/svg"
  xmlns:xlink="http://www.w3.org/1999/xlink"
  width="100%" height="100%" viewBox="0 0 600 140">
  <defs>
    <style type="text/css">
    svg {
      font-size: 19px;
      font-family: sans-serif;
    }

    /*
     * Line work
     */
    .line, .arrowLine, .dottedArrow, .doubleArrowLine {
      stroke: black;
      stroke-width: 1.5;
      fill: none;
    }
    .arrowLine, .dottedArrow {
      marker-end: url(#arrow);
    }
    .dottedArrow {
      stroke-dasharray: 4 4;
      stroke-width: 2;
    }
    .doubleArrowLine {
      marker-start: url(#reverseArrow);
      marker-end: url(#arrow);
    }
    .bracket {
      stroke: black;
      stroke-width: 1.5;
      fill: none;
    }

    /*
     * Animation spans
     */
    .animatingSpan  {
      fill: paleturquoise;
      stroke: black;
    }
    .fillingSpan  {
      fill: lightgrey;
      stroke: black;
    }

    /*
     * Text labels
     */
    .timeLabel, .regionLabel, .stateLabel {
      text-anchor: middle;
    }
    .exampleLabel {
      font-size: 1.5em;
    }
    .stateLabel {
      fill: navy;
    }
    </style>

    <!-- Arrows -->
    <style type="text/css">
      .blackArrowHead {
        fill: black;
        stroke: none;
      }
    </style>
    <marker id="arrow" viewBox="0 -5 10 10" orient="auto" markerWidth="5"
      markerHeight="5">
      <path d="M0-5l10 5l-10 5z" class="blackArrowHead"/>
    </marker>
    <marker id="reverseArrow" viewBox="-10 -5 10 10" orient="auto"
      markerWidth="5" markerHeight="5">
      <path d="M0-5l-10 5l10 5z" class="blackArrowHead"/>
    </marker>

    <!-- Fade out effect -->
    <mask id="fadeout" maskContentUnits="objectBoundingBox">
      <rect x="-0.05" y="-0.05" width="1.1" height="1.1"
        fill="url(#fadeoutGrad)"/>
    </mask>
    <linearGradient id="fadeoutGrad">
      <stop offset="0" stop-color="white" stop-opacity="1"/>
      <stop offset="0.5" stop-color="white" stop-opacity="1"/>
      <stop offset="0.85" stop-color="white" stop-opacity="0"/>
    </linearGradient>
  </defs>

  <!-- Timeline -->
  <g>
    <text x="1em" y="1.1em">Time</text>
    <line x1="80" x2="97%" y1="0.8em" y2="0.8em" class="arrowLine"/>
    <line x1="80" x2="80" y1="0.6em" y2="1em" class="line"/>
  </g>

  <!-- Animation examples -->
  <g transform="translate(80 50)">
    <g transform="translate(100 0)">
      <g mask="url(#fadeout)">
        <rect width="400" height="40" class="fillingSpan"/>
        <rect width="160" height="40" class="animatingSpan"/>
      </g>
      <text x="80" y="25" class="stateLabel">animating</text>
      <text x="240" y="25" class="stateLabel">filling</text>
      <g transform="translate(0 50)">
        <path d="M2 0s0 7 7 7h164s7 0 7 7c0 0 0-7 7-7h164s7 0 7-7"
          class="bracket"/>
        <text x="180" y="35" class="regionLabel">active</text>
      </g>
    </g>
    <g transform="translate(0 50)">
      <path d="M2 0s0 7 7 7h34s7 0 7 7c0 0 0-7 7-7h34s7 0 7-7"
        class="bracket"/>
      <text x="50" y="35" class="regionLabel">inactive</text>
    </g>
  </g>
</svg>
