<!-- vim: set expandtab ts=2 sw=2 tw=80: -->
<svg xmlns="http://www.w3.org/2000/svg" width="100%" height="100%"
  xmlns:xlink="http://www.w3.org/1999/xlink"
  viewBox="0 0 600 840">
  <defs>
    <style type="text/css">
    svg {
      font-size: 19px;
      font-family: sans-serif;
    }

    /*
     * Line work
     */
    .arrowLine, .dottedArrow {
      stroke: black;
      stroke-width: 1.5;
      marker-end: url(#arrow);
      fill: none;
    }
    .dottedArrow {
      stroke-dasharray: 4 4;
      stroke-width: 2;
    }
    .bracket {
      stroke: black;
      stroke-width: 1.5;
      fill: none;
    }

    /*
     * Animation spans
     */
    .animatingSpan  {
      fill: paleturquoise;
      stroke: black;
    }
    .itemSpan {
      fill: none;
      stroke: red;
      stroke-dasharray: 3 6;
      stroke-width: 2;
      stroke-linecap: round;
    }

    /*
     * Text labels
     */
    .timeLabel, .regionLabel, .stateLabel {
      text-anchor: middle;
    }
    .exampleLabel {
      font-size: 1.5em;
    }
    .stateLabel {
      fill: navy;
    }

    /*
     * Colored brackets
     */
    path.itemInterval, .itemInterval path {
      stroke: red;
    }
    text.itemInterval, .itemInterval text {
      fill: red;
    }
    path.animInterval, .animInterval path {
      stroke: navy;
    }
    text.animInterval, .animInterval text {
      fill: navy;
    }
    </style>

    <!-- Arrows -->
    <style type="text/css">
      .blackArrowHead {
        fill: black;
        stroke: none;
      }
    </style>
    <marker id="arrow" viewBox="0 -5 10 10" orient="auto" markerWidth="5"
      markerHeight="5">
      <path d="M0-5l10 5l-10 5z" class="blackArrowHead"/>
    </marker>

    <!-- Star -->
    <style type="text/css">
      .startTimeStar {
        stroke: red;
        stroke-linecap: round;
        stroke-width: 2;
        fill: none;
      }
    </style>
    <path d="M-3.5-3.5l7 7M3.5-3.5l-7 7M0-5v10M-5 0h10"
      class="startTimeStar" id="star"/>
  </defs>
  <!-- Timeline -->
  <g>
    <text x="1em" y="1.1em">Time</text>
    <line x1="4em" x2="97%" y1="0.8em" y2="0.8em" class="arrowLine"/>
  </g>
  <!-- A simple animation -->
  <g transform="translate(180 20)">
    <text x="-130" y="145" class="exampleLabel">(a)</text>
    <!-- Text labels -->
    <g transform="translate(0 40)">
      <text class="timeLabel" y="-0.2em">start time =
        <tspan x="0" dy="0.9em">start of</tspan>
        <tspan x="0" dy="0.9em">animation</tspan></text>
      <text x="250" class="timeLabel">end time</text>
    </g>
    <!-- Arrows -->
    <g transform="translate(0 50)">
      <path d="M0 25v9" class="dottedArrow"/>
      <path d="M250 0v34" class="dottedArrow"/>
    </g>
    <!-- Animation shaded areas -->
    <g transform="translate(0 100)">
      <rect x="-2" y="-2" width="254" height="64" class="itemSpan"/>
      <rect width="250" height="60" class="animatingSpan"/>
      <text x="125" y="35" class="stateLabel">animating</text>
      <use xlink:href="#star"/>
    </g>
    <!-- Interval labels -->
    <g transform="translate(0 174)">
      <g class="animInterval">
        <path d="M0 0s0 7 7 7h111s7 0 7 7c0 0 0-7 7-7h111s7 0 7-7"
          class="bracket"/>
        <text x="125" y="32" class="regionLabel">animation interval</text>
      </g>
      <g transform="translate(0 40)" class="itemInterval">
        <path d="M0 0s0 7 7 7h111s7 0 7 7c0 0 0-7 7-7h111s7 0 7-7"
          class="bracket"/>
        <text x="125" y="32" class="regionLabel">item interval</text>
      </g>
    </g>
  </g>
  <!-- Animation with a positive delay -->
  <g transform="translate(180 290)">
    <text x="-130" y="145" class="exampleLabel">(b)</text>
    <!-- Text labels -->
    <g transform="translate(0 40)">
      <text class="timeLabel">start time</text>
      <text x="120" class="timeLabel">start of
        <tspan x="120" y="0.9em">animation</tspan></text>
      <text x="370" class="timeLabel">end time</text>
    </g>
    <!-- Arrows -->
    <g transform="translate(0 50)">
      <path d="M0 0v34" class="dottedArrow"/>
      <path d="M120 15v19" class="dottedArrow"/>
      <path d="M370 0v34" class="dottedArrow"/>
    </g>
    <!-- Animation shaded areas -->
    <g transform="translate(0 100)">
      <rect y="-2" width="372" height="64" class="itemSpan"/>
      <rect x="120" width="250" height="60" class="animatingSpan"/>
      <text x="245" y="35" class="stateLabel">animating</text>
      <use xlink:href="#star"/>
    </g>
    <!-- Interval labels -->
    <g transform="translate(0 174)">
      <g>
        <path d="M2 0s0 7 7 7h44s7 0 7 7c0 0 0-7 7-7h44s7 0 7-7"
          class="bracket"/>
        <text x="60" y="34" class="regionLabel">start delay</text>
      </g>
      <g class="animInterval">
        <path d="M122 0s0 7 7 7h111s7 0 7 7c0 0 0-7 7-7h111s7 0 7-7"
          class="bracket"/>
        <text x="245" y="34" class="regionLabel">animation interval</text>
      </g>
      <g transform="translate(0 42)" class="itemInterval">
        <path d="M0 0s0 7 7 7h171s7 0 7 7c0 0 0-7 7-7h171s7 0 7-7"
          class="bracket"/>
        <text x="185" y="34" class="regionLabel">item interval</text>
      </g>
    </g>
  </g>
  <!-- Animation with a negative delay -->
  <g transform="translate(180 570)">
    <text x="-130" y="145" class="exampleLabel">(c)</text>
    <!-- Text labels -->
    <g transform="translate(0 40)">
      <text x="120" class="timeLabel">start time</text>
      <text class="timeLabel">start of
        <tspan x="0" y="0.9em">animation</tspan></text>
      <text x="250" class="timeLabel">end time</text>
    </g>
    <!-- Arrows -->
    <g transform="translate(0 50)">
      <path d="M120 0v34" class="dottedArrow"/>
      <path d="M0 15v19" class="dottedArrow"/>
      <path d="M250 0v34" class="dottedArrow"/>
    </g>
    <!-- Animation shaded areas -->
    <g transform="translate(0 100)">
      <rect y="-2" x="120" width="132" height="64" class="itemSpan"/>
      <rect width="250" height="60" class="animatingSpan"/>
      <mask id="blockOutLineNearTextMask" maskUnits="userSpaceOnUse"
        x="0" y="0" width="250" height="60">
        <rect width="250" height="60" fill="white"/>
        <rect width="250" height="20" y="20"/>
      </mask>
      <line x1="120" x2="120" y2="60" class="itemSpan"
        mask="url(#blockOutLineNearTextMask)"/>
      <text x="125" y="35" class="stateLabel">animating</text>
      <use x="120" xlink:href="#star"/>
    </g>
    <!-- Region labels -->
    <g transform="translate(0 170)">
      <g>
        <path d="M2 0s0 7 7 7h44s7 0 7 7c0 0 0-7 7-7h44s7 0 7-7"
          class="bracket"/>
        <text x="60" y="34" class="regionLabel">(negative)
          <tspan x="60" dy="0.9em">start delay</tspan></text>
      </g>
      <g transform="translate(120 0)" class="itemInterval">
        <path d="M2 0s0 7 7 7h49s7 0 7 7c0 0 0-7 7-7h49s7 0 7-7"
          class="bracket"/>
        <text x="65" y="34" class="regionLabel">item interval</text>
      </g>
      <g transform="translate(0 60)" class="animInterval">
        <path d="M0 0s0 7 7 7h111s7 0 7 7c0 0 0-7 7-7h111s7 0 7-7"
          class="bracket"/>
        <text x="125" y="34" class="regionLabel">animation interval</text>
      </g>
    </g>
  </g>
</svg>
